<svg xmlns="http://www.w3.org/2000/svg" version="1.1" xmlns:xlink="http://www.w3.org/1999/xlink" xmlns:svgjs="http://svgjs.dev/svgjs" width="128" height="128" viewBox="0 0 128 128"><g transform="matrix(0.8046875,0,0,0.8046875,12.333870967741937,12.343921774191422)"><svg viewBox="0 0 155 155" data-background-color="#ffffff" preserveAspectRatio="xMidYMid meet" height="128" width="128" xmlns="http://www.w3.org/2000/svg" xmlns:xlink="http://www.w3.org/1999/xlink"><g id="tight-bounds" transform="matrix(1,0,0,1,0.25,0.26512499999680017)"><svg viewBox="0 0 154.5 154.5" height="154.5" width="154.5"><g><svg viewBox="0 0 154.5 154.5" height="154.5" width="154.5"><g transform="matrix(1,0,0,1,53.95679656963716,50.2438949702109)"><svg viewBox="0 0 46.586406860725674 54.012210059578194" height="54.012210059578194" width="46.586406860725674"><g><svg viewBox="0 0 46.586406860725674 54.012210059578194" height="54.012210059578194" width="46.586406860725674"><g><svg viewBox="0 0 46.586406860725674 54.012210059578194" height="54.012210059578194" width="46.586406860725674"><g id="textblocktransform"><svg viewBox="0 0 46.586406860725674 54.012210059578194" height="54.012210059578194" width="46.586406860725674" id="textblock"><g><svg viewBox="0 0 46.586406860725674 54.012210059578194" height="54.012210059578194" width="46.586406860725674"><g transform="matrix(1,0,0,1,0,0)"><svg width="46.586406860725674" viewBox="2.5 -38.05 33.25 38.55" height="54.012210059578194" data-palette-color="#0080ff"><path d="M27.15-21.25L27.15-21.25Q27.15-22.6 26.8-23.45L26.8-23.45Q27.3-24.2 28.38-24.68 29.45-25.15 30.43-25.15 31.4-25.15 32.15-24.85L32.15-24.85Q34.7-23.6 34.7-20.35L34.7-20.35Q34.7-11.7 28.75-5.4L28.75-5.4Q30.2-3.85 31.45-3.85L31.45-3.85Q33.55-3.85 33.55-5.9L33.55-5.9Q33.55-6.45 33.4-7.05L33.4-7.05Q35.75-5.95 35.75-3.78 35.75-1.6 34.35-0.55 32.95 0.5 31 0.5L31 0.5Q28.1 0.5 25.45-2.65L25.45-2.65Q20.9 0.3 15.8 0.3L15.8 0.3Q9.35 0.3 5.93-3.9 2.5-8.1 2.5-14.85L2.5-14.85Q2.5-19.25 3.85-23.43 5.2-27.6 7.58-30.85 9.95-34.1 13.55-36.08 17.15-38.05 21.08-38.05 25-38.05 27.53-36.27 30.05-34.5 30.05-31.35L30.05-31.35Q30.05-28.95 28.38-27.08 26.7-25.2 23.75-25.2L23.75-25.2Q22.2-25.2 21-25.98 19.8-26.75 19.8-28.45L19.8-28.45Q19.8-29.25 20.2-29.85 20.6-30.45 21-30.6L21-30.6 21.45-30.8Q21.45-28.8 23.05-28.8L23.05-28.8Q23.8-28.8 24.35-29.33 24.9-29.85 24.95-30.5 25-31.15 24.9-31.53 24.8-31.9 24.5-32.4L24.5-32.4Q23.8-33.65 21.55-33.65L21.55-33.65Q18.6-33.65 15.95-30.85 13.3-28.05 11.73-23.65 10.15-19.25 10.15-14.65L10.15-14.65Q10.15-10.8 11.4-7.8L11.4-7.8Q12.1-6.2 13.45-5.28 14.8-4.35 16.7-4.35L16.7-4.35Q19.85-4.35 22.3-7.05L22.3-7.05Q19.65-11.1 17.8-11.1L17.8-11.1Q17.55-11.1 16.5-10.75L16.5-10.75 17.25-13.4Q18.25-14.25 19.6-14.25L19.6-14.25Q22.05-14.25 24.8-10.75L24.8-10.75Q27.15-15.55 27.15-21.25Z" opacity="1" transform="matrix(1,0,0,1,0,0)" fill="#000000" class="undefined-text-0" data-fill-palette-color="primary" id="text-0"></path></svg></g></svg></g></svg></g></svg></g></svg></g></svg></g><g><path d="M18.478 108.204V108.204C18.861 108.058 19.153 107.889 19.353 107.697V107.697C19.622 107.76 19.88 107.918 20.127 108.169 20.383 108.424 20.563 108.69 20.669 108.966 20.772 109.237 20.82 109.495 20.813 109.742V109.742C20.737 110.599 20.24 111.203 19.323 111.553V111.553C16.872 112.487 14.434 112.453 12.007 111.45V111.45C11.723 112.026 11.649 112.493 11.786 112.851V112.851C12.011 113.442 12.416 113.626 13 113.403V113.403C13.157 113.343 13.313 113.262 13.469 113.159V113.159C13.406 113.939 13.067 114.446 12.451 114.681 11.836 114.916 11.305 114.892 10.858 114.608 10.406 114.328 10.074 113.911 9.863 113.358V113.358C9.551 112.541 9.698 111.585 10.303 110.491V110.491C8.976 109.522 8.038 108.318 7.489 106.879V106.879C6.791 105.05 6.855 103.424 7.68 102.001 8.498 100.581 9.863 99.506 11.773 98.778V98.778C13.017 98.303 14.301 98.029 15.627 97.955 16.954 97.888 18.208 98.014 19.388 98.335 20.562 98.657 21.622 99.22 22.57 100.025 23.52 100.836 24.206 101.794 24.627 102.9 25.052 104.012 25.149 105.023 24.92 105.931 24.69 106.839 24.129 107.463 23.237 107.803V107.803C22.558 108.062 21.864 108.053 21.154 107.777 20.44 107.51 19.924 106.958 19.605 106.122V106.122C19.438 105.682 19.399 105.251 19.489 104.828 19.58 104.404 19.867 104.101 20.351 103.916V103.916C20.577 103.83 20.797 103.811 21.009 103.859 21.222 103.908 21.369 103.981 21.45 104.08V104.08L21.607 104.236C21.041 104.452 20.845 104.786 21.017 105.238V105.238C21.099 105.452 21.245 105.608 21.455 105.708 21.666 105.808 21.865 105.829 22.052 105.772 22.239 105.715 22.381 105.654 22.478 105.588 22.573 105.516 22.674 105.412 22.781 105.278V105.278C23.063 104.94 23.082 104.454 22.84 103.819V103.819C22.522 102.984 21.823 102.34 20.743 101.888 19.666 101.442 18.418 101.235 16.997 101.265 15.583 101.294 14.225 101.556 12.925 102.052V102.052C11.831 102.469 10.929 103.019 10.217 103.7V103.7C9.839 104.068 9.594 104.492 9.483 104.974 9.365 105.458 9.408 105.967 9.612 106.501V106.501C9.952 107.393 10.639 108.042 11.671 108.447V108.447C12.527 107.256 12.856 106.401 12.657 105.879V105.879C12.631 105.81 12.51 105.644 12.294 105.381V105.381L13.547 105.27C13.894 105.461 14.14 105.749 14.286 106.132V106.132C14.55 106.823 14.334 107.748 13.638 108.906V108.906C15.25 109.054 16.863 108.82 18.478 108.204ZM42.667 134.414V134.414C39.238 137.983 37.43 139.895 37.241 140.149V140.149C36.881 140.635 36.878 141.01 37.235 141.274V141.274C37.548 141.507 38.051 141.545 38.744 141.39 39.438 141.235 40.213 140.805 41.07 140.102V140.102C41.147 140.845 41.135 141.368 41.036 141.671V141.671C39.886 142.644 38.826 143.147 37.855 143.18 36.884 143.213 36.078 142.991 35.435 142.514V142.514C34.377 141.728 33.967 140.791 34.205 139.703V139.703C32.968 140.05 31.82 139.83 30.762 139.045V139.045C29.887 138.395 29.374 137.675 29.224 136.885 29.079 136.099 29.269 135.352 29.794 134.645V134.645C29.918 134.478 30.168 134.203 30.544 133.82V133.82C32.505 131.766 34.055 130.124 35.195 128.893V128.893C35.664 129.04 36.057 129.231 36.376 129.468 36.694 129.704 36.924 129.892 37.065 130.03 37.201 130.173 37.284 130.377 37.314 130.642 37.343 130.906 37.25 131.185 37.033 131.476V131.476L32.977 135.689C32.841 135.814 32.73 135.937 32.641 136.055V136.055C32.108 136.774 32.171 137.377 32.83 137.866V137.866C33.44 138.319 34.165 138.397 35.006 138.1V138.1C35.106 137.965 35.275 137.759 35.513 137.484V137.484L39.722 133.083C39.965 132.937 40.274 132.898 40.65 132.968 41.035 133.036 41.438 133.226 41.859 133.539 42.28 133.851 42.55 134.143 42.667 134.414ZM66.114 137.556C66.52 137.266 66.971 137.164 67.468 137.252 67.958 137.338 68.348 137.587 68.637 138 68.926 138.413 69.028 138.864 68.942 139.354 68.854 139.851 68.605 140.241 68.193 140.524 67.783 140.8 67.333 140.895 66.843 140.808 66.346 140.721 65.955 140.478 65.67 140.08 65.393 139.676 65.298 139.226 65.385 138.729 65.471 138.239 65.714 137.848 66.114 137.556ZM64.045 143.963C64.244 143.724 64.565 143.569 65.008 143.497 65.449 143.431 65.875 143.434 66.286 143.507 66.697 143.579 67.048 143.695 67.341 143.856V143.856C65.969 148.244 65.279 150.458 65.272 150.498V150.498C65.147 150.783 65.066 151.028 65.03 151.234 64.995 151.432 64.977 151.61 64.977 151.767V151.767C64.969 152.162 65.21 152.402 65.7 152.488 66.184 152.574 66.686 152.338 67.207 151.781 67.73 151.217 68.165 150.549 68.512 149.777V149.777C68.608 149.855 68.742 150.063 68.915 150.401 69.087 150.739 69.18 150.987 69.193 151.146V151.146C68.686 152.286 68.01 153.158 67.167 153.76V153.76C66.322 154.37 65.4 154.587 64.399 154.411 63.399 154.235 62.701 153.856 62.305 153.274 61.908 152.699 61.777 152.024 61.913 151.249V151.249C61.943 151.083 61.979 150.912 62.024 150.736V150.736ZM98.752 152.384V152.384L92.614 153.874C92.425 153.924 92.262 153.688 92.124 153.168 91.987 152.648 91.99 152.213 92.133 151.862V151.862C92.199 151.218 92.58 150.199 93.275 148.804V148.804C93.497 148.356 93.921 147.541 94.547 146.359 95.178 145.17 95.584 144.363 95.764 143.94V143.94L94.586 144.179C94.504 144.764 94.299 145.277 93.971 145.719 93.643 146.161 93.222 146.45 92.708 146.586V146.586C92.123 146.741 91.603 146.694 91.148 146.446 90.686 146.199 90.373 145.767 90.209 145.15 90.048 144.539 90.132 143.991 90.463 143.507 90.789 143.031 91.326 142.694 92.074 142.496V142.496L98.214 141.016C98.403 140.966 98.562 141.188 98.693 141.682V141.682C98.829 142.196 98.84 142.617 98.726 142.947V142.947C98.634 143.312 98.471 143.72 98.236 144.172 98.006 144.616 97.654 145.217 97.18 145.975 96.706 146.734 96.378 147.269 96.196 147.582V147.582C95.475 148.823 94.991 149.964 94.744 151.003V151.003L96.24 150.701C96.321 150.116 96.526 149.602 96.855 149.161 97.185 148.725 97.606 148.44 98.12 148.304V148.304C98.705 148.149 99.228 148.194 99.69 148.441 100.144 148.683 100.452 149.112 100.616 149.73 100.78 150.347 100.698 150.894 100.372 151.37 100.039 151.848 99.499 152.186 98.752 152.384ZM92.44 144.59V144.59C91.927 144.726 91.714 144.96 91.802 145.292 91.891 145.63 92.128 145.748 92.511 145.646V145.646C93.077 145.497 93.448 145.071 93.624 144.371V144.371L92.709 144.54C92.614 144.551 92.525 144.568 92.44 144.59ZM98.388 150.299V150.299C98.901 150.163 99.113 149.926 99.024 149.588 98.934 149.25 98.701 149.131 98.324 149.231V149.231C97.752 149.382 97.378 149.812 97.204 150.519V150.519L98.119 150.349C98.214 150.338 98.303 150.321 98.388 150.299ZM129.733 134.064V134.064L125 138.246C124.856 138.378 124.602 138.247 124.238 137.851 123.873 137.455 123.673 137.069 123.636 136.691V136.691C123.394 136.091 123.255 135.012 123.219 133.454V133.454C123.206 132.954 123.201 132.035 123.204 130.698 123.206 129.351 123.189 128.449 123.15 127.99V127.99L122.22 128.752C122.421 129.307 122.479 129.857 122.395 130.401 122.311 130.945 122.073 131.396 121.682 131.756V131.756C121.237 132.166 120.755 132.368 120.237 132.361 119.713 132.359 119.235 132.122 118.802 131.652 118.374 131.188 118.193 130.664 118.26 130.081 118.326 129.508 118.644 128.959 119.213 128.435V128.435L123.953 124.261C124.097 124.129 124.342 124.251 124.688 124.627V124.627C125.048 125.017 125.254 125.385 125.306 125.73V125.73C125.396 126.095 125.442 126.533 125.445 127.042 125.449 127.542 125.418 128.238 125.352 129.13 125.287 130.022 125.247 130.649 125.232 131.01V131.01C125.174 132.445 125.278 133.679 125.545 134.713V134.713L126.726 133.748C126.525 133.193 126.467 132.643 126.551 132.099 126.64 131.56 126.88 131.111 127.271 130.751V130.751C127.716 130.341 128.2 130.137 128.723 130.139 129.237 130.141 129.711 130.377 130.144 130.847 130.576 131.317 130.76 131.839 130.693 132.412 130.622 132.99 130.302 133.54 129.733 134.064ZM120.515 130.116V130.116C120.124 130.476 120.045 130.783 120.277 131.035 120.514 131.292 120.778 131.286 121.07 131.017V131.017C121.5 130.621 121.63 130.072 121.459 129.37V129.37L120.729 129.947C120.65 130.001 120.579 130.057 120.515 130.117ZM128.438 132.391V132.391C128.829 132.031 128.906 131.722 128.669 131.465 128.432 131.208 128.17 131.211 127.883 131.476V131.476C127.448 131.876 127.318 132.43 127.494 133.137V133.137L128.224 132.56C128.303 132.506 128.374 132.45 128.438 132.391ZM142.79 103.551C142.898 102.595 142.76 101.81 142.374 101.195 141.986 100.587 141.543 100.201 141.045 100.037 140.546 99.874 140.165 99.893 139.9 100.097 139.633 100.306 139.447 100.571 139.342 100.89V100.89C139.122 101.561 139.305 102.276 139.891 103.035 140.477 103.793 141.294 104.345 142.342 104.688 143.384 105.03 144.241 105.039 144.914 104.715 145.588 104.384 146.046 103.851 146.287 103.117V103.117C146.642 102.037 146.608 100.879 146.185 99.643 145.765 98.401 145.048 97.274 144.035 96.262V96.262C144.447 96.043 144.916 95.875 145.443 95.758V95.758C146.366 96.592 147.149 97.783 147.795 99.333V99.333C148.094 100.103 148.268 100.953 148.317 101.882 148.364 102.818 148.244 103.723 147.956 104.599V104.599C147.485 106.036 146.67 107.029 145.514 107.577V107.577C144.27 108.152 142.907 108.197 141.425 107.71 139.949 107.226 138.837 106.246 138.09 104.769 137.352 103.288 137.238 101.771 137.747 100.218V100.218C138.11 99.113 138.644 98.294 139.35 97.761 140.064 97.224 140.832 97.083 141.654 97.339V97.339C142.76 97.701 143.512 98.44 143.91 99.555 144.317 100.665 144.402 102.034 144.165 103.662V103.662Z" fill="#000000" data-fill-palette-color="accent"></path><path d="M11.096 49.024V49.024C10.707 48.875 10.373 48.805 10.096 48.814V48.814C9.938 48.588 9.848 48.298 9.825 47.943 9.804 47.583 9.848 47.261 9.957 46.978 10.062 46.702 10.2 46.474 10.37 46.294V46.294C11.007 45.702 11.79 45.585 12.719 45.94V45.94C15.188 46.885 16.998 48.55 18.152 50.936V50.936C18.757 50.692 19.126 50.394 19.261 50.043V50.043C19.492 49.44 19.312 49.025 18.721 48.799V48.799C18.564 48.739 18.393 48.699 18.206 48.678V48.678C18.777 48.126 19.374 47.969 19.996 48.207 20.618 48.445 21.002 48.823 21.15 49.34 21.3 49.851 21.268 50.386 21.054 50.945V50.945C20.737 51.774 19.98 52.396 18.785 52.809V52.809C19.135 54.434 19.032 55.975 18.474 57.432V57.432C17.769 59.272 16.627 60.452 15.046 60.97 13.471 61.49 11.72 61.382 9.792 60.644V60.644C8.536 60.163 7.384 59.502 6.338 58.663 5.293 57.816 4.436 56.876 3.766 55.842 3.096 54.808 2.676 53.668 2.505 52.421 2.334 51.175 2.462 49.993 2.89 48.875 3.321 47.751 3.928 46.925 4.713 46.397 5.499 45.87 6.34 45.778 7.238 46.122V46.122C7.923 46.384 8.443 46.86 8.798 47.55 9.149 48.232 9.164 48.993 8.841 49.835V49.835C8.671 50.281 8.411 50.631 8.061 50.887 7.709 51.148 7.288 51.185 6.798 50.997V50.997C6.572 50.911 6.393 50.777 6.26 50.597 6.136 50.413 6.074 50.256 6.073 50.126V50.126L6.06 49.905C6.632 50.124 7.006 50.004 7.181 49.545V49.545C7.263 49.332 7.258 49.118 7.168 48.903 7.077 48.688 6.944 48.536 6.769 48.448 6.586 48.363 6.434 48.316 6.316 48.307 6.199 48.291 6.052 48.299 5.874 48.332V48.332C5.439 48.396 5.099 48.748 4.854 49.389V49.389C4.532 50.23 4.627 51.185 5.14 52.253 5.647 53.318 6.446 54.315 7.538 55.244 8.621 56.177 9.819 56.895 11.131 57.398V57.398C12.231 57.818 13.279 58.014 14.276 57.986V57.986C14.812 57.96 15.285 57.806 15.695 57.524 16.108 57.236 16.418 56.821 16.624 56.281V56.281C16.968 55.383 16.888 54.435 16.385 53.435V53.435C14.939 53.753 14.114 54.176 13.912 54.703V54.703C13.886 54.772 13.865 54.977 13.85 55.317V55.317L12.833 54.56C12.699 54.177 12.705 53.795 12.852 53.411V53.411C13.121 52.708 13.908 52.156 15.214 51.756V51.756C14.095 50.557 12.723 49.647 11.096 49.024ZM36.797 17.602V17.602C39.242 21.959 40.561 24.267 40.753 24.526V24.526C41.117 25.018 41.477 25.132 41.834 24.868V24.868C42.153 24.632 42.339 24.16 42.392 23.451 42.446 22.734 42.261 21.855 41.834 20.815V20.815C42.568 20.958 43.07 21.122 43.34 21.307V21.307C43.934 22.708 44.107 23.881 43.86 24.825 43.607 25.773 43.154 26.489 42.5 26.973V26.973C41.429 27.765 40.406 27.886 39.431 27.336V27.336C39.401 28.63 38.851 29.673 37.78 30.464V30.464C36.893 31.12 36.046 31.405 35.236 31.317 34.431 31.235 33.765 30.838 33.237 30.124V30.124C33.109 29.951 32.917 29.624 32.662 29.144V29.144C31.252 26.649 30.117 24.669 29.259 23.204V23.204C29.543 22.785 29.845 22.457 30.164 22.221 30.483 21.985 30.733 21.821 30.915 21.728 31.088 21.633 31.31 21.611 31.582 21.661 31.848 21.716 32.089 21.889 32.304 22.181V22.181L35.182 27.342C35.263 27.508 35.349 27.653 35.441 27.778V27.778C35.977 28.502 36.578 28.619 37.243 28.127V28.127C37.859 27.671 38.146 26.99 38.103 26.084V26.084C38.004 25.949 37.859 25.726 37.67 25.414V25.414L34.643 20.049C34.577 19.78 34.633 19.471 34.81 19.122 34.983 18.768 35.283 18.433 35.711 18.118 36.132 17.806 36.495 17.634 36.797 17.602ZM62.335 0.757C62.617 0.339 63.006 0.087 63.503 0 64.007-0.088 64.465 0.016 64.879 0.312 65.298 0.601 65.551 0.997 65.64 1.5 65.726 1.997 65.621 2.449 65.324 2.856 65.033 3.262 64.636 3.509 64.132 3.597 63.635 3.684 63.185 3.585 62.78 3.301 62.375 3.017 62.129 2.626 62.042 2.13 61.954 1.626 62.052 1.169 62.335 0.757ZM62.572 7.557C62.677 7.258 62.925 7 63.317 6.781 63.717 6.568 64.125 6.425 64.542 6.352 64.953 6.28 65.327 6.269 65.663 6.32V6.32C65.867 10.96 65.973 13.301 65.98 13.34V13.34C65.96 13.658 65.969 13.919 66.004 14.125 66.039 14.323 66.083 14.497 66.136 14.644V14.644C66.264 15.025 66.573 15.172 67.064 15.086 67.554 15.001 67.952 14.603 68.258 13.894 68.556 13.18 68.74 12.397 68.81 11.545V11.545C68.926 11.586 69.124 11.739 69.402 12.005 69.686 12.262 69.861 12.464 69.928 12.609V12.609C69.841 13.867 69.5 14.926 68.907 15.788V15.788C68.308 16.657 67.505 17.18 66.498 17.356 65.485 17.534 64.693 17.416 64.122 17.004 63.545 16.593 63.187 15.993 63.05 15.205V15.205C63.021 15.039 62.997 14.866 62.979 14.685V14.685ZM95.747 19.266V19.266L89.608 17.505C89.42 17.455 89.395 17.167 89.535 16.64 89.674 16.114 89.893 15.734 90.191 15.5V15.5C90.569 14.966 91.413 14.261 92.724 13.384V13.384C93.145 13.106 93.925 12.603 95.064 11.875 96.21 11.148 96.969 10.643 97.344 10.36V10.36L96.182 9.979C95.82 10.454 95.383 10.801 94.873 11.021 94.361 11.247 93.848 11.292 93.335 11.156V11.156C92.743 10.999 92.308 10.696 92.031 10.247 91.751 9.805 91.694 9.271 91.86 8.647 92.023 8.029 92.368 7.592 92.896 7.335 93.423 7.078 94.063 7.05 94.818 7.249V7.249L100.957 9.01C101.145 9.06 101.172 9.339 101.038 9.846V9.846C100.902 10.359 100.702 10.734 100.438 10.97V10.97C100.17 11.247 99.823 11.521 99.396 11.79 98.968 12.067 98.357 12.419 97.561 12.849 96.764 13.285 96.209 13.594 95.897 13.775V13.775C94.639 14.507 93.645 15.266 92.914 16.054V16.054L94.373 16.534C94.742 16.061 95.178 15.714 95.682 15.492 96.193 15.273 96.708 15.232 97.228 15.369V15.369C97.819 15.526 98.255 15.826 98.534 16.268 98.812 16.718 98.869 17.251 98.705 17.868 98.54 18.493 98.194 18.933 97.667 19.19 97.141 19.441 96.501 19.466 95.747 19.266ZM94.097 9.26V9.26C93.577 9.123 93.272 9.226 93.18 9.571 93.091 9.909 93.238 10.129 93.621 10.23V10.23C94.2 10.383 94.741 10.193 95.244 9.658V9.658L94.353 9.359C94.267 9.316 94.182 9.283 94.097 9.26ZM96.468 17.255V17.255C96.988 17.393 97.293 17.293 97.382 16.955 97.473 16.61 97.324 16.386 96.934 16.283V16.283C96.362 16.131 95.821 16.322 95.311 16.855V16.855L96.21 17.166C96.291 17.201 96.377 17.231 96.468 17.255ZM121.709 34.84V34.84L117.099 30.42C116.956 30.288 117.068 30.022 117.437 29.621 117.806 29.22 118.177 28.986 118.55 28.918V28.918C119.133 28.622 120.208 28.392 121.777 28.227V28.227C122.279 28.177 123.204 28.096 124.551 27.983 125.903 27.875 126.81 27.782 127.274 27.706V27.706L126.423 26.827C125.882 27.078 125.334 27.182 124.78 27.138 124.222 27.1 123.747 26.9 123.356 26.541V26.541C122.906 26.126 122.662 25.656 122.626 25.129 122.585 24.607 122.784 24.109 123.221 23.633 123.653 23.163 124.163 22.938 124.749 22.956 125.335 22.974 125.915 23.248 126.489 23.776V23.776L131.099 28.196C131.243 28.328 131.137 28.587 130.782 28.973V28.973C130.422 29.364 130.07 29.603 129.726 29.688V29.688C129.36 29.808 128.925 29.888 128.423 29.928 127.915 29.973 127.21 30 126.306 30.009 125.397 30.023 124.762 30.037 124.401 30.052V30.052C122.947 30.113 121.714 30.321 120.701 30.677V30.677L121.767 31.782C122.314 31.536 122.862 31.432 123.411 31.471 123.965 31.515 124.44 31.719 124.836 32.083V32.083C125.286 32.498 125.531 32.966 125.572 33.488 125.608 34.014 125.41 34.513 124.977 34.983 124.54 35.458 124.029 35.686 123.442 35.668 122.861 35.645 122.283 35.369 121.709 34.84ZM124.914 25.219V25.219C124.519 24.855 124.2 24.804 123.959 25.066 123.722 25.324 123.749 25.587 124.041 25.855V25.855C124.482 26.261 125.049 26.344 125.744 26.106V26.106L125.094 25.426C125.039 25.347 124.979 25.279 124.914 25.219ZM123.284 33.397V33.397C123.68 33.761 123.996 33.815 124.233 33.558 124.474 33.295 124.446 33.028 124.15 32.754V32.754C123.714 32.354 123.147 32.27 122.447 32.504V32.504L123.097 33.198C123.152 33.267 123.215 33.333 123.284 33.397ZM141.622 56.96C142.104 57.799 142.69 58.354 143.38 58.622 144.061 58.887 144.651 58.937 145.149 58.773 145.654 58.607 145.952 58.36 146.042 58.033 146.139 57.704 146.135 57.38 146.03 57.06V57.06C145.806 56.377 145.225 55.902 144.288 55.637 143.358 55.369 142.365 55.409 141.311 55.756 140.257 56.102 139.554 56.613 139.203 57.288 138.851 57.963 138.798 58.671 139.041 59.412V59.412C139.398 60.498 140.119 61.418 141.203 62.174 142.293 62.927 143.551 63.415 144.977 63.64V63.64C144.775 64.06 144.494 64.475 144.133 64.884V64.884C142.883 64.764 141.533 64.266 140.084 63.391V63.391C139.372 62.946 138.718 62.357 138.123 61.625 137.531 60.9 137.088 60.093 136.796 59.205V59.205C136.317 57.749 136.383 56.453 136.994 55.317V55.317C137.656 54.101 138.737 53.247 140.239 52.753 141.734 52.261 143.226 52.397 144.716 53.16 146.21 53.915 147.215 55.078 147.732 56.649V56.649C148.1 57.767 148.152 58.755 147.889 59.613 147.633 60.469 147.093 61.043 146.268 61.336V61.336C145.15 61.703 144.096 61.555 143.106 60.889 142.115 60.224 141.223 59.158 140.429 57.692V57.692Z" fill="#000000" data-fill-palette-color="accent"></path><path d="M1.474 80.094C1.474 76.408 4.462 73.42 8.148 73.42 11.834 73.42 14.822 76.408 14.822 80.094 14.822 83.781 11.834 86.769 8.148 86.769 4.462 86.769 1.474 83.781 1.474 80.094ZM139.678 80.094C139.678 76.408 142.666 73.42 146.352 73.42 150.038 73.42 153.026 76.408 153.026 80.094 153.026 83.781 150.038 86.769 146.352 86.769 142.666 86.769 139.678 83.781 139.678 80.094Z" fill="#000000" data-fill-palette-color="accent"></path></g></svg></g><defs></defs></svg><rect width="154.5" height="154.5" fill="none" stroke="none" visibility="hidden"></rect></g></svg></g></svg>